<?xml version="1.0" standalone="no"?>
<!DOCTYPE svg PUBLIC "-//W3C//DTD SVG 20010904//EN"
 "http://www.w3.org/TR/2001/REC-SVG-20010904/DTD/svg10.dtd">
<svg version="1.0" xmlns="http://www.w3.org/2000/svg"
 width="500.000000pt" height="500.000000pt" viewBox="0 0 500.000000 500.000000"
 preserveAspectRatio="xMidYMid meet">

<g transform="translate(0.000000,500.000000) scale(0.100000,-0.100000)"
fill="#000000" stroke="none">
<path d="M2310 4094 c-532 -65 -1003 -392 -1245 -865 -65 -126 -127 -306 -151
-434 -22 -120 -30 -383 -14 -499 42 -317 171 -602 387 -851 68 -79 262 -250
296 -261 23 -7 188 91 332 198 321 239 564 589 655 946 11 46 27 138 35 205
38 319 135 497 336 619 93 55 135 72 226 88 84 15 226 9 298 -14 66 -20 187
-101 255 -170 148 -149 210 -337 210 -631 -1 -173 -8 -249 -41 -420 -22 -116
-118 -435 -150 -497 -28 -55 -23 -55 21 1 149 189 270 457 317 702 27 145 24
479 -5 615 -137 635 -613 1108 -1254 1245 -69 15 -141 21 -283 24 -104 2 -206
1 -225 -1z"/>
<path d="M3122 3130 c-263 -69 -397 -254 -431 -596 -14 -137 -50 -296 -90
-396 -154 -386 -440 -729 -800 -959 -55 -35 -100 -66 -100 -69 -1 -3 24 -18
55 -34 l55 -28 62 43 c430 297 733 651 856 1002 43 123 60 201 71 337 13 148
30 214 79 315 51 103 127 180 229 232 65 33 86 38 156 41 233 10 427 -160 480
-420 31 -150 17 -422 -34 -648 -52 -235 -172 -516 -303 -712 -35 -54 -62 -98
-60 -98 7 0 127 82 151 103 12 11 22 28 22 38 0 9 18 49 41 88 90 156 185 454
238 748 19 104 25 309 12 421 -23 199 -77 327 -185 441 -143 149 -315 200
-504 151z"/>
<path d="M3219 2937 c-95 -27 -191 -111 -242 -212 -33 -66 -57 -161 -72 -292
-34 -283 -111 -490 -267 -721 -138 -204 -395 -458 -641 -633 -42 -30 -77 -57
-77 -61 0 -3 21 -13 47 -22 l47 -16 95 72 c121 92 414 382 517 513 148 188
255 372 308 532 29 90 56 242 56 324 0 132 48 261 119 320 20 16 60 38 89 49
195 73 386 -61 422 -295 25 -160 -23 -458 -118 -725 -66 -188 -256 -527 -378
-675 -87 -107 -85 -99 -26 -77 101 39 250 238 395 528 78 157 110 242 147 399
41 172 53 271 52 430 -1 296 -69 448 -235 530 -84 41 -166 52 -238 32z"/>
<path d="M3215 2704 c-96 -35 -133 -110 -146 -298 -11 -163 -22 -221 -58 -329
-53 -156 -182 -382 -313 -549 -69 -88 -267 -306 -322 -354 l-49 -43 36 -6 c33
-6 41 -3 92 41 76 66 230 236 315 349 178 237 295 480 340 706 6 31 15 104 19
162 11 132 34 181 101 215 89 45 171 17 223 -77 25 -44 31 -69 35 -133 14
-237 -147 -735 -319 -984 l-30 -44 31 0 c46 0 73 35 155 205 138 281 200 510
212 780 7 160 -6 219 -67 288 -71 80 -161 106 -255 71z"/>
<path d="M3272 2488 c-30 -33 -42 -71 -42 -137 0 -86 -28 -230 -66 -344 -19
-55 -34 -105 -34 -109 0 -13 47 -9 58 5 34 41 92 297 92 408 0 61 16 89 50 89
32 0 43 -36 36 -118 -22 -243 -131 -555 -268 -763 -46 -71 -402 -442 -526
-547 l-73 -62 57 0 c55 0 58 1 138 69 106 91 230 218 352 362 108 126 176 248
249 444 91 242 145 539 115 629 -28 87 -93 121 -138 74z"/>
<path d="M3047 1798 c-8 -13 -27 -45 -42 -73 -43 -76 -162 -252 -224 -330 -78
-99 -306 -330 -412 -416 l-90 -74 38 -5 c28 -4 43 -1 59 12 11 10 24 18 27 18
4 0 58 45 120 100 124 109 297 293 297 314 0 7 7 19 16 27 60 49 184 230 253
367 l41 82 -35 0 c-25 0 -38 -6 -48 -22z"/>
<path d="M3019 1198 c-35 -44 -107 -125 -160 -180 -53 -54 -93 -98 -90 -98 3
1 33 7 66 15 65 15 81 30 213 190 92 112 107 136 91 146 -34 22 -56 8 -120
-73z"/>
<path d="M2205 1030 c-4 -6 -29 -28 -55 -49 l-49 -39 37 -5 c32 -3 46 2 100
42 51 37 60 47 45 53 -27 10 -71 9 -78 -2z"/>
</g>
</svg>
