<?xml version="1.0" standalone="no"?>
<!DOCTYPE svg PUBLIC "-//W3C//DTD SVG 20010904//EN"
 "http://www.w3.org/TR/2001/REC-SVG-20010904/DTD/svg10.dtd">
<svg version="1.0" xmlns="http://www.w3.org/2000/svg"
 width="500.000000pt" height="500.000000pt" viewBox="0 0 500.000000 500.000000"
 preserveAspectRatio="xMidYMid meet">

<g transform="translate(0.000000,500.000000) scale(0.100000,-0.100000)"
fill="#000000" stroke="none">
<path d="M992 4034 c-88 -45 -114 -160 -56 -243 20 -29 88 -60 130 -61 46 0
114 40 135 80 38 69 17 169 -44 212 -40 29 -121 34 -165 12z"/>
<path d="M2096 4020 c-63 -20 -106 -83 -106 -156 0 -153 200 -211 288 -83 20
29 23 44 20 94 -4 65 -24 102 -69 129 -34 20 -96 28 -133 16z"/>
<path d="M1405 3969 c-49 -6 -94 -15 -100 -21 -7 -8 -3 -9 15 -4 14 4 97 10
185 13 150 5 263 -4 385 -33 19 -4 21 -3 10 4 -52 34 -341 58 -495 41z"/>
<path d="M775 3738 c-74 -50 -154 -117 -218 -182 -53 -53 -157 -179 -157 -190
0 -15 17 -4 32 22 54 87 220 249 346 333 39 27 72 52 72 54 0 11 -18 2 -75
-37z"/>
<path d="M2340 3726 c0 -1 28 -25 63 -52 34 -27 98 -83 142 -124 63 -59 72
-66 44 -30 -53 67 -249 229 -249 206z"/>
<path d="M1405 3576 c-331 -52 -621 -272 -767 -582 -123 -264 -123 -594 1
-859 100 -214 263 -380 476 -488 327 -164 728 -136 1035 73 132 90 107 58 848
1080 206 283 377 516 380 517 4 2 38 -46 77 -105 38 -59 114 -177 170 -262 55
-85 202 -311 325 -502 124 -191 227 -348 230 -348 3 0 23 29 43 64 l38 65
-447 670 -447 671 -25 -38 c-14 -20 -186 -264 -382 -542 -321 -454 -586 -835
-658 -945 -40 -60 -159 -176 -231 -224 -298 -201 -705 -202 -998 -3 -184 125
-316 311 -375 527 -30 113 -30 325 1 440 73 278 283 515 544 615 131 51 203
62 362 57 125 -3 150 -7 239 -37 109 -37 229 -104 314 -177 167 -143 286 -377
307 -603 3 -36 8 -89 11 -118 l6 -53 55 78 c54 78 55 78 49 138 -29 324 -250
641 -556 795 -189 95 -409 129 -625 96z"/>
<path d="M228 3320 c-47 -14 -85 -48 -103 -92 -42 -106 32 -218 145 -218 94 0
151 54 158 149 5 70 -22 115 -88 149 -47 23 -68 26 -112 12z"/>
<path d="M196 2913 c-20 -65 -36 -214 -36 -334 0 -147 16 -289 32 -289 6 0 7
7 4 15 -30 80 -31 395 -1 539 9 43 14 80 12 83 -3 2 -8 -4 -11 -14z"/>
<path d="M4419 2575 c0 -56 -10 -120 -31 -205 -135 -563 -756 -858 -1270 -604
-179 88 -325 230 -410 398 l-30 60 -29 -35 c-53 -64 -55 -74 -29 -122 125
-225 373 -416 626 -481 340 -87 707 5 967 243 160 148 289 399 312 608 l7 58
-56 55 -56 54 -1 -29z"/>
<path d="M216 2210 c-91 -28 -133 -144 -84 -232 42 -75 150 -102 218 -55 57
38 75 72 75 136 -1 70 -29 115 -89 142 -44 20 -75 22 -120 9z"/>
<path d="M4392 1899 c-23 -33 -40 -65 -36 -72 4 -7 111 -173 238 -370 l231
-358 3 139 3 138 -193 291 c-106 160 -195 292 -198 292 -3 0 -24 -27 -48 -60z"/>
<path d="M370 1832 c0 -20 138 -187 216 -262 90 -86 212 -180 235 -180 7 0
-21 23 -62 51 -92 64 -292 265 -339 341 -32 52 -50 70 -50 50z"/>
<path d="M2362 1448 c-34 -22 -60 -43 -58 -46 6 -6 100 53 116 74 18 21 11 18
-58 -28z"/>
<path d="M962 1433 c-45 -22 -74 -67 -80 -122 -8 -90 50 -165 139 -177 100
-12 190 81 175 181 -16 106 -136 167 -234 118z"/>
<path d="M2023 1429 c-57 -28 -83 -72 -83 -140 0 -100 72 -166 170 -157 87 9
143 70 143 159 0 64 -28 109 -83 137 -55 28 -93 28 -147 1z"/>
<path d="M2972 1424 c-18 -13 -22 -24 -22 -74 0 -66 12 -80 69 -80 45 0 61 23
61 85 0 44 -4 57 -22 69 -12 9 -32 16 -43 16 -11 0 -31 -7 -43 -16z m76 -77
c-3 -50 -4 -52 -33 -52 -29 0 -30 2 -33 50 -4 57 16 82 50 64 16 -8 18 -19 16
-62z"/>
<path d="M3272 1430 c-29 -12 -27 -58 3 -74 58 -31 64 -37 58 -52 -4 -12 -16
-15 -44 -12 -28 2 -39 0 -39 -10 0 -10 14 -12 53 -10 l52 3 0 35 c0 30 -5 37
-37 53 -55 25 -47 67 9 46 20 -7 43 5 31 17 -11 10 -65 13 -86 4z"/>
<path d="M4085 1415 c-18 -17 -25 -35 -25 -62 0 -56 23 -83 69 -83 49 0 59 14
52 75 l-5 50 -6 -44 c-9 -80 -72 -83 -78 -4 -3 46 19 79 47 68 9 -4 25 -8 36
-10 18 -4 18 -2 -4 15 -31 27 -57 25 -86 -5z"/>
<path d="M4463 1430 c-26 -11 -36 -41 -31 -96 2 -25 8 -38 16 -36 6 1 11 -4
10 -10 -4 -17 69 -23 88 -7 9 7 14 31 14 70 0 48 -4 60 -22 73 -25 18 -42 19
-75 6z m59 -27 c32 -29 17 -113 -20 -113 -29 0 -42 21 -42 67 0 29 5 45 18 52
23 14 23 14 44 -6z"/>
<path d="M3100 1350 l0 -80 53 0 c29 0 58 5 65 12 15 15 15 51 0 66 -8 8 -8
15 1 26 9 11 10 20 1 35 -9 17 -20 21 -65 21 l-55 0 0 -80z m95 40 c0 -10 -12
-16 -32 -18 -28 -3 -33 0 -33 18 0 18 5 21 33 18 20 -2 32 -8 32 -18z m-7 -49
c25 -16 9 -46 -26 -49 -28 -3 -32 0 -32 21 0 13 3 27 7 30 9 10 35 8 51 -2z"/>
<path d="M3390 1350 l0 -80 55 0 c30 0 55 5 55 10 0 6 -17 10 -38 10 -45 0
-52 4 -45 31 4 14 14 19 39 19 24 0 34 5 34 15 0 10 -10 15 -34 15 -20 0 -36
6 -39 14 -8 20 2 26 45 26 21 0 38 5 38 10 0 6 -25 10 -55 10 l-55 0 0 -80z"/>
<path d="M3520 1350 c0 -64 3 -80 15 -80 10 0 15 10 15 30 0 40 29 40 52 0 9
-17 24 -30 33 -30 19 0 19 5 -1 35 -15 22 -15 26 0 40 19 19 20 38 6 66 -9 15
-22 19 -65 19 l-55 0 0 -80z m98 33 c3 -17 -3 -24 -22 -29 -33 -8 -46 1 -46
32 0 22 4 25 33 22 24 -2 33 -8 35 -25z"/>
<path d="M3688 1353 c38 -105 55 -105 93 0 25 68 27 78 12 75 -10 -2 -24 -23
-33 -51 -9 -26 -21 -49 -25 -50 -5 -1 -16 21 -25 48 -10 30 -23 51 -33 53 -15
3 -13 -8 11 -75z"/>
<path d="M3823 1350 c-28 -74 -29 -80 -12 -80 11 0 19 7 19 15 0 10 10 15 34
15 21 0 36 -6 40 -15 4 -12 36 -23 36 -12 0 20 -61 153 -72 155 -10 2 -24 -23
-45 -78z m57 16 c0 -8 3 -21 6 -30 4 -12 0 -16 -15 -16 -21 0 -26 15 -15 44 8
20 24 21 24 2z"/>
<path d="M3930 1421 c0 -5 10 -11 23 -13 20 -3 22 -8 22 -71 0 -53 3 -67 15
-67 12 0 15 14 15 67 0 63 2 68 23 71 46 7 20 22 -38 22 -33 0 -60 -4 -60 -9z"/>
<path d="M4220 1350 c0 -64 3 -80 15 -80 10 0 15 10 14 33 l-1 32 -8 -30 c-6
-23 -8 -12 -9 43 0 39 3 72 7 72 5 0 8 -12 7 -27 -2 -19 -1 -21 2 -5 3 17 11
22 34 22 40 0 42 -1 45 -32 1 -17 -2 -25 -9 -21 -6 4 -7 1 -2 -7 6 -10 11 -9
22 5 16 23 16 30 3 56 -9 15 -22 19 -65 19 l-55 0 0 -80z"/>
<path d="M4380 1350 c0 -64 3 -80 15 -80 12 0 15 16 15 80 0 64 -3 80 -15 80
-12 0 -15 -16 -15 -80z"/>
<path d="M4260 1340 c0 -13 11 -13 30 0 12 8 11 10 -7 10 -13 0 -23 -4 -23
-10z"/>
<path d="M4290 1325 c0 -19 31 -55 47 -55 14 0 14 2 1 23 -9 12 -19 20 -23 19
-4 -2 -12 2 -16 10 -5 7 -9 8 -9 3z"/>
<path d="M3523 1223 c-3 -10 -17 -45 -29 -77 -13 -33 -24 -62 -24 -66 0 -15
30 -5 36 12 8 25 55 23 77 -3 31 -35 31 -14 1 71 -28 78 -48 99 -61 63z m36
-80 c1 -7 -8 -13 -19 -13 -23 0 -23 0 -9 37 10 26 12 27 19 8 5 -11 9 -26 9
-32z"/>
<path d="M3638 1175 c-1 -36 -2 -72 -2 -82 -1 -9 5 -18 12 -20 8 -3 12 9 12
41 0 51 14 60 32 21 6 -14 17 -25 25 -25 7 0 19 11 25 25 17 38 28 30 28 -20
0 -35 3 -43 15 -39 16 7 19 42 9 118 -8 57 -25 59 -49 6 -10 -22 -22 -40 -26
-40 -5 0 -18 18 -29 40 -32 62 -50 53 -52 -25z"/>
<path d="M3830 1158 l0 -83 58 5 c54 5 57 7 60 34 2 16 -1 33 -7 39 -6 6 -6
16 2 28 20 33 -3 54 -62 57 l-51 3 0 -83z m87 46 c7 -18 -14 -35 -37 -31 -8 1
-16 12 -18 25 -3 18 1 22 23 22 14 0 28 -7 32 -16z m3 -79 c0 -21 -5 -25 -30
-25 -25 0 -30 4 -30 25 0 21 5 25 30 25 25 0 30 -4 30 -25z"/>
<path d="M3977 1158 c1 -56 5 -83 13 -83 8 0 12 27 13 83 2 67 -1 82 -13 82
-12 0 -15 -15 -13 -82z"/>
<path d="M4030 1162 c0 -43 2 -81 4 -83 8 -8 116 3 116 12 0 5 -21 9 -46 9
-41 0 -45 2 -42 23 2 18 10 23 41 25 20 2 37 7 37 12 0 5 -17 10 -37 12 -30 2
-38 7 -38 23 0 16 8 21 43 23 64 5 50 22 -18 22 l-60 0 0 -78z"/>
<path d="M4170 1155 c0 -70 3 -83 14 -79 10 4 16 23 18 52 l3 47 32 -46 c53
-77 63 -73 63 26 0 69 -3 85 -15 85 -11 0 -15 -12 -15 -45 0 -25 -3 -45 -7
-45 -5 0 -21 20 -36 45 -44 70 -57 61 -57 -40z"/>
<path d="M4320 1230 c0 -5 7 -10 15 -10 8 0 15 5 15 10 0 6 -7 10 -15 10 -8 0
-15 -4 -15 -10z"/>
<path d="M4380 1230 c36 -12 60 -12 60 0 0 6 -19 10 -42 9 -37 -1 -39 -2 -18
-9z"/>
<path d="M4498 1233 c14 -5 17 -33 3 -33 -5 0 -11 5 -13 12 -2 6 -16 -20 -30
-58 -14 -40 -21 -71 -15 -73 5 -2 14 4 19 13 6 10 23 16 46 17 34 0 35 1 15
11 -18 8 -28 7 -49 -7 -25 -16 -27 -16 -21 0 4 9 7 19 7 21 0 3 5 2 10 -1 9
-6 14 10 13 43 -1 22 27 12 33 -13 3 -13 12 -29 19 -35 7 -6 11 -20 8 -30 -4
-14 0 -20 12 -20 12 0 15 5 10 18 -3 9 -16 45 -28 80 -14 40 -27 62 -37 61
-10 0 -11 -2 -2 -6z"/>
<path d="M4600 1160 l0 -80 56 0 c34 0 53 4 49 10 -3 6 -22 10 -41 10 l-34 0
0 70 c0 56 -3 70 -15 70 -12 0 -15 -16 -15 -80z"/>
<path d="M1280 1209 c0 -13 153 -29 278 -29 146 0 315 21 299 36 -2 2 -48 -3
-103 -11 -119 -18 -279 -18 -391 -1 -46 6 -83 9 -83 5z"/>
<path d="M4371 1151 c-12 -54 -12 -64 0 -72 11 -6 15 -1 17 26 2 19 2 52 0 73
-3 35 -4 33 -17 -27z"/>
</g>
</svg>
